<?xml version="1.0" standalone="no"?>
<!DOCTYPE svg PUBLIC "-//W3C//DTD SVG 20010904//EN"
 "http://www.w3.org/TR/2001/REC-SVG-20010904/DTD/svg10.dtd">
<svg version="1.0" xmlns="http://www.w3.org/2000/svg"
 width="1024.000000pt" height="768.000000pt" viewBox="0 0 1024.000000 768.000000"
 preserveAspectRatio="xMidYMid meet">
<metadata>
Created by potrace 1.15, written by Peter Selinger 2001-2017
</metadata>
<g transform="translate(0.000000,768.000000) scale(0.100000,-0.100000)"
fill="#000000" stroke="none">
<path d="M4082 5789 c-76 -13 -157 -54 -212 -108 -26 -25 -77 -96 -113 -157
-75 -126 -140 -192 -225 -232 l-57 -27 -450 -5 c-382 -5 -456 -8 -491 -22
-134 -52 -228 -164 -253 -303 -16 -83 -15 -2353 0 -2427 25 -120 108 -225 217
-276 l57 -27 2160 0 2160 0 58 28 c72 36 144 108 183 184 l29 58 3 1224 c2
1097 1 1231 -14 1280 -35 125 -127 218 -258 264 -19 7 -205 13 -487 16 l-455
6 -76 37 c-91 46 -124 80 -211 225 -37 60 -85 129 -108 152 -54 53 -149 100
-230 111 -81 12 -1156 11 -1227 -1z m1926 -926 c92 -69 93 -188 2 -250 -42
-29 -122 -31 -163 -4 -102 67 -92 216 18 267 39 18 110 12 143 -13z m-1023
-83 c95 -26 239 -92 323 -149 297 -201 474 -565 448 -920 -36 -482 -394 -875
-869 -951 -122 -20 -330 -8 -442 24 -362 106 -626 377 -727 744 -18 64 -22
107 -22 247 -1 148 2 181 22 255 54 198 145 352 288 490 145 140 310 229 504
271 117 26 358 20 475 -11z"/>
<path d="M4630 4634 c-381 -47 -690 -336 -755 -709 -19 -110 -19 -189 0 -297
30 -172 101 -312 224 -441 119 -125 252 -204 416 -248 113 -30 307 -30 419 0
572 154 830 809 514 1303 -113 176 -308 315 -515 369 -76 19 -235 31 -303 23z"/>
<path d="M2895 5568 c-44 -24 -55 -49 -55 -130 l0 -78 235 0 235 0 0 78 c0 82
-12 108 -57 131 -29 15 -331 14 -358 -1z"/>
<path d="M8032 2942 c-1 -535 -6 -932 -12 -990 -37 -336 -179 -642 -407 -875
-208 -213 -441 -343 -748 -419 l-90 -22 -1995 -4 c-1466 -2 -2020 0 -2090 8
-574 70 -1064 488 -1225 1045 -58 201 -58 196 -65 1160 l-6 890 1 -920 c1
-907 1 -921 23 -1016 32 -143 67 -242 126 -364 172 -353 492 -631 866 -754
128 -42 222 -60 365 -71 164 -13 3734 -13 3889 0 359 30 663 165 920 410 234
222 381 503 437 830 18 109 19 162 17 1050 l-3 935 -3 -893z"/>
</g>
</svg>
